<mxfile host="app.diagrams.net" agent="Mozilla/5.0 (Windows NT 10.0; Win64; x64) AppleWebKit/537.36 (KHTML, like Gecko) Chrome/140.0.0.0 Safari/537.36" version="27.1.6">
  <diagram name="Page-1" id="WTfwbJK1DqQRXwuWgbVw">
    <mxGraphModel dx="1469" dy="663" grid="0" gridSize="10" guides="1" tooltips="1" connect="1" arrows="1" fold="1" page="1" pageScale="1" pageWidth="2000" pageHeight="1200" math="0" shadow="0">
      <root>
        <mxCell id="0" />
        <mxCell id="1" parent="0" />
        <mxCell id="IXsih3EqHPn1jYVtWHGe-5" style="edgeStyle=orthogonalEdgeStyle;rounded=0;orthogonalLoop=1;jettySize=auto;html=1;entryX=0;entryY=0.5;entryDx=0;entryDy=0;exitX=1;exitY=0.5;exitDx=0;exitDy=0;" edge="1" parent="1" source="IXsih3EqHPn1jYVtWHGe-13" target="IXsih3EqHPn1jYVtWHGe-48">
          <mxGeometry relative="1" as="geometry" />
        </mxCell>
        <mxCell id="IXsih3EqHPn1jYVtWHGe-6" value="&lt;font style=&quot;font-size: 14px;&quot;&gt;&lt;b&gt;确认通知&lt;/b&gt;&lt;/font&gt;" style="edgeLabel;html=1;align=center;verticalAlign=middle;resizable=0;points=[];" vertex="1" connectable="0" parent="IXsih3EqHPn1jYVtWHGe-5">
          <mxGeometry x="-0.1279" y="2" relative="1" as="geometry">
            <mxPoint x="3" y="2" as="offset" />
          </mxGeometry>
        </mxCell>
        <mxCell id="IXsih3EqHPn1jYVtWHGe-69" style="edgeStyle=orthogonalEdgeStyle;rounded=0;orthogonalLoop=1;jettySize=auto;html=1;exitX=0.5;exitY=1;exitDx=0;exitDy=0;entryX=0.5;entryY=0;entryDx=0;entryDy=0;" edge="1" parent="1" source="IXsih3EqHPn1jYVtWHGe-7" target="IXsih3EqHPn1jYVtWHGe-51">
          <mxGeometry relative="1" as="geometry" />
        </mxCell>
        <mxCell id="IXsih3EqHPn1jYVtWHGe-70" value="&lt;font style=&quot;font-size: 14px;&quot;&gt;&lt;b&gt;归档信息&lt;/b&gt;&lt;/font&gt;" style="edgeLabel;html=1;align=center;verticalAlign=middle;resizable=0;points=[];" vertex="1" connectable="0" parent="IXsih3EqHPn1jYVtWHGe-69">
          <mxGeometry x="-0.193" relative="1" as="geometry">
            <mxPoint x="5" y="1" as="offset" />
          </mxGeometry>
        </mxCell>
        <mxCell id="IXsih3EqHPn1jYVtWHGe-7" value="3.1.3" style="swimlane;html=1;startSize=20;fontStyle=1;collapsible=0;horizontal=1;swimlaneLine=1;strokeWidth=2;swimlaneFillColor=#ffffff;whiteSpace=wrap;rounded=1;fontSize=15;" vertex="1" parent="1">
          <mxGeometry x="508" y="501" width="158" height="64" as="geometry" />
        </mxCell>
        <mxCell id="IXsih3EqHPn1jYVtWHGe-8" value="反馈事件进展" style="text;html=1;align=center;verticalAlign=middle;whiteSpace=wrap;rounded=0;fontSize=15;fontStyle=1" vertex="1" parent="IXsih3EqHPn1jYVtWHGe-7">
          <mxGeometry x="28" y="26" width="102" height="30" as="geometry" />
        </mxCell>
        <mxCell id="IXsih3EqHPn1jYVtWHGe-13" value="3.1.1" style="swimlane;html=1;startSize=20;fontStyle=1;collapsible=0;horizontal=1;swimlaneLine=1;strokeWidth=2;swimlaneFillColor=#ffffff;whiteSpace=wrap;rounded=1;fontSize=15;" vertex="1" parent="1">
          <mxGeometry x="267" y="169" width="158" height="64" as="geometry" />
        </mxCell>
        <mxCell id="IXsih3EqHPn1jYVtWHGe-14" value="响应应急事件" style="text;html=1;align=center;verticalAlign=middle;whiteSpace=wrap;rounded=0;fontSize=15;fontStyle=1" vertex="1" parent="IXsih3EqHPn1jYVtWHGe-13">
          <mxGeometry x="23.5" y="26" width="111" height="30" as="geometry" />
        </mxCell>
        <mxCell id="IXsih3EqHPn1jYVtWHGe-15" style="edgeStyle=orthogonalEdgeStyle;rounded=0;orthogonalLoop=1;jettySize=auto;html=1;exitX=0.5;exitY=1;exitDx=0;exitDy=0;entryX=0.5;entryY=0;entryDx=0;entryDy=0;fontStyle=1" edge="1" parent="1" source="IXsih3EqHPn1jYVtWHGe-13" target="IXsih3EqHPn1jYVtWHGe-37">
          <mxGeometry relative="1" as="geometry">
            <mxPoint x="161" y="719.25" as="sourcePoint" />
          </mxGeometry>
        </mxCell>
        <mxCell id="IXsih3EqHPn1jYVtWHGe-16" value="&lt;b&gt;&lt;font style=&quot;font-size: 14px;&quot;&gt;紧急险情类别&lt;/font&gt;&lt;/b&gt;" style="edgeLabel;html=1;align=center;verticalAlign=middle;resizable=0;points=[];" vertex="1" connectable="0" parent="IXsih3EqHPn1jYVtWHGe-15">
          <mxGeometry x="0.0088" y="-1" relative="1" as="geometry">
            <mxPoint x="-1" as="offset" />
          </mxGeometry>
        </mxCell>
        <mxCell id="IXsih3EqHPn1jYVtWHGe-21" style="edgeStyle=orthogonalEdgeStyle;rounded=0;orthogonalLoop=1;jettySize=auto;html=1;exitX=1;exitY=0.5;exitDx=0;exitDy=0;entryX=0;entryY=0.5;entryDx=0;entryDy=0;" edge="1" parent="1" source="IXsih3EqHPn1jYVtWHGe-27" target="IXsih3EqHPn1jYVtWHGe-13">
          <mxGeometry relative="1" as="geometry">
            <mxPoint x="1098" y="630" as="targetPoint" />
          </mxGeometry>
        </mxCell>
        <mxCell id="IXsih3EqHPn1jYVtWHGe-22" value="&lt;b&gt;&lt;font style=&quot;font-size: 14px;&quot;&gt;紧急险情&lt;/font&gt;&lt;/b&gt;" style="edgeLabel;html=1;align=center;verticalAlign=middle;resizable=0;points=[];" vertex="1" connectable="0" parent="IXsih3EqHPn1jYVtWHGe-21">
          <mxGeometry x="0.1482" y="2" relative="1" as="geometry">
            <mxPoint x="-2" y="-1" as="offset" />
          </mxGeometry>
        </mxCell>
        <mxCell id="IXsih3EqHPn1jYVtWHGe-68" style="edgeStyle=orthogonalEdgeStyle;rounded=0;orthogonalLoop=1;jettySize=auto;html=1;entryX=0.5;entryY=0;entryDx=0;entryDy=0;" edge="1" parent="1" source="IXsih3EqHPn1jYVtWHGe-25" target="IXsih3EqHPn1jYVtWHGe-7">
          <mxGeometry relative="1" as="geometry" />
        </mxCell>
        <mxCell id="IXsih3EqHPn1jYVtWHGe-71" value="&lt;font style=&quot;font-size: 14px;&quot;&gt;&lt;b&gt;资源监控反馈&lt;/b&gt;&lt;/font&gt;" style="edgeLabel;html=1;align=center;verticalAlign=middle;resizable=0;points=[];" vertex="1" connectable="0" parent="IXsih3EqHPn1jYVtWHGe-68">
          <mxGeometry x="-0.0025" relative="1" as="geometry">
            <mxPoint as="offset" />
          </mxGeometry>
        </mxCell>
        <mxCell id="IXsih3EqHPn1jYVtWHGe-75" style="edgeStyle=orthogonalEdgeStyle;rounded=0;orthogonalLoop=1;jettySize=auto;html=1;exitX=1;exitY=0.5;exitDx=0;exitDy=0;entryX=0;entryY=0.5;entryDx=0;entryDy=0;" edge="1" parent="1" source="IXsih3EqHPn1jYVtWHGe-25" target="IXsih3EqHPn1jYVtWHGe-74">
          <mxGeometry relative="1" as="geometry" />
        </mxCell>
        <mxCell id="IXsih3EqHPn1jYVtWHGe-76" value="&lt;b style=&quot;font-size: 14px;&quot;&gt;资源使用记录&lt;/b&gt;" style="edgeLabel;html=1;align=center;verticalAlign=middle;resizable=0;points=[];" vertex="1" connectable="0" parent="IXsih3EqHPn1jYVtWHGe-75">
          <mxGeometry x="-0.2922" y="-1" relative="1" as="geometry">
            <mxPoint x="15" y="-1" as="offset" />
          </mxGeometry>
        </mxCell>
        <mxCell id="IXsih3EqHPn1jYVtWHGe-25" value="3.2.2" style="swimlane;html=1;startSize=20;fontStyle=1;collapsible=0;horizontal=1;swimlaneLine=1;strokeWidth=2;swimlaneFillColor=#ffffff;whiteSpace=wrap;rounded=1;fontSize=15;" vertex="1" parent="1">
          <mxGeometry x="508" y="369" width="158" height="64" as="geometry" />
        </mxCell>
        <mxCell id="IXsih3EqHPn1jYVtWHGe-26" value="监控应急资源" style="text;html=1;align=center;verticalAlign=middle;whiteSpace=wrap;rounded=0;fontSize=15;fontStyle=1" vertex="1" parent="IXsih3EqHPn1jYVtWHGe-25">
          <mxGeometry x="21" y="25" width="116" height="30" as="geometry" />
        </mxCell>
        <mxCell id="IXsih3EqHPn1jYVtWHGe-27" value="&lt;b&gt;风险监测模块&lt;/b&gt;" style="rounded=0;whiteSpace=wrap;html=1;fontSize=16;" vertex="1" parent="1">
          <mxGeometry x="75" y="161" width="80" height="80" as="geometry" />
        </mxCell>
        <mxCell id="IXsih3EqHPn1jYVtWHGe-28" style="edgeStyle=orthogonalEdgeStyle;rounded=0;orthogonalLoop=1;jettySize=auto;html=1;exitX=0.5;exitY=1;exitDx=0;exitDy=0;entryX=1;entryY=0.5;entryDx=0;entryDy=0;" edge="1" parent="1" source="IXsih3EqHPn1jYVtWHGe-48" target="IXsih3EqHPn1jYVtWHGe-37">
          <mxGeometry relative="1" as="geometry" />
        </mxCell>
        <mxCell id="IXsih3EqHPn1jYVtWHGe-29" value="&lt;b style=&quot;font-size: 14px;&quot;&gt;确认信息&lt;/b&gt;" style="edgeLabel;html=1;align=center;verticalAlign=middle;resizable=0;points=[];" vertex="1" connectable="0" parent="IXsih3EqHPn1jYVtWHGe-28">
          <mxGeometry x="-0.0085" y="-1" relative="1" as="geometry">
            <mxPoint x="-31" y="1" as="offset" />
          </mxGeometry>
        </mxCell>
        <mxCell id="IXsih3EqHPn1jYVtWHGe-58" style="edgeStyle=orthogonalEdgeStyle;rounded=0;orthogonalLoop=1;jettySize=auto;html=1;exitX=0;exitY=0.5;exitDx=0;exitDy=0;" edge="1" parent="1" source="IXsih3EqHPn1jYVtWHGe-37" target="IXsih3EqHPn1jYVtWHGe-55">
          <mxGeometry relative="1" as="geometry" />
        </mxCell>
        <mxCell id="IXsih3EqHPn1jYVtWHGe-60" value="&lt;b&gt;&lt;font style=&quot;font-size: 14px;&quot;&gt;应急指令&lt;/font&gt;&lt;/b&gt;" style="edgeLabel;html=1;align=center;verticalAlign=middle;resizable=0;points=[];" vertex="1" connectable="0" parent="IXsih3EqHPn1jYVtWHGe-58">
          <mxGeometry x="0.4423" y="-1" relative="1" as="geometry">
            <mxPoint as="offset" />
          </mxGeometry>
        </mxCell>
        <mxCell id="IXsih3EqHPn1jYVtWHGe-37" value="3.1.2" style="swimlane;html=1;startSize=20;fontStyle=1;collapsible=0;horizontal=1;swimlaneLine=1;strokeWidth=2;swimlaneFillColor=#ffffff;whiteSpace=wrap;rounded=1;fontSize=15;" vertex="1" parent="1">
          <mxGeometry x="267" y="296" width="158" height="64" as="geometry" />
        </mxCell>
        <mxCell id="IXsih3EqHPn1jYVtWHGe-38" value="启动应急预案" style="text;html=1;align=center;verticalAlign=middle;whiteSpace=wrap;rounded=0;fontSize=15;fontStyle=1" vertex="1" parent="IXsih3EqHPn1jYVtWHGe-37">
          <mxGeometry x="21" y="25" width="116" height="30" as="geometry" />
        </mxCell>
        <mxCell id="IXsih3EqHPn1jYVtWHGe-66" style="edgeStyle=orthogonalEdgeStyle;rounded=0;orthogonalLoop=1;jettySize=auto;html=1;exitX=1;exitY=0.5;exitDx=0;exitDy=0;entryX=0;entryY=0.5;entryDx=0;entryDy=0;" edge="1" parent="1" source="IXsih3EqHPn1jYVtWHGe-41" target="IXsih3EqHPn1jYVtWHGe-7">
          <mxGeometry relative="1" as="geometry" />
        </mxCell>
        <mxCell id="IXsih3EqHPn1jYVtWHGe-73" value="&lt;font style=&quot;font-size: 14px;&quot;&gt;&lt;b&gt;反馈信息&lt;/b&gt;&lt;/font&gt;" style="edgeLabel;html=1;align=center;verticalAlign=middle;resizable=0;points=[];" vertex="1" connectable="0" parent="IXsih3EqHPn1jYVtWHGe-66">
          <mxGeometry x="-0.17" y="-1" relative="1" as="geometry">
            <mxPoint x="4" y="-1" as="offset" />
          </mxGeometry>
        </mxCell>
        <mxCell id="IXsih3EqHPn1jYVtWHGe-67" style="edgeStyle=orthogonalEdgeStyle;rounded=0;orthogonalLoop=1;jettySize=auto;html=1;exitX=0.5;exitY=0;exitDx=0;exitDy=0;entryX=0;entryY=0.5;entryDx=0;entryDy=0;" edge="1" parent="1" source="IXsih3EqHPn1jYVtWHGe-41" target="IXsih3EqHPn1jYVtWHGe-25">
          <mxGeometry relative="1" as="geometry" />
        </mxCell>
        <mxCell id="IXsih3EqHPn1jYVtWHGe-72" value="&lt;font style=&quot;font-size: 14px;&quot;&gt;&lt;b&gt;资源使用信息&lt;/b&gt;&lt;/font&gt;" style="edgeLabel;html=1;align=center;verticalAlign=middle;resizable=0;points=[];" vertex="1" connectable="0" parent="IXsih3EqHPn1jYVtWHGe-67">
          <mxGeometry x="-0.6596" y="1" relative="1" as="geometry">
            <mxPoint as="offset" />
          </mxGeometry>
        </mxCell>
        <mxCell id="IXsih3EqHPn1jYVtWHGe-41" value="&lt;b&gt;抢险队&lt;/b&gt;" style="rounded=0;whiteSpace=wrap;html=1;fontSize=16;" vertex="1" parent="1">
          <mxGeometry x="306" y="493" width="80" height="80" as="geometry" />
        </mxCell>
        <mxCell id="IXsih3EqHPn1jYVtWHGe-48" value="&lt;b&gt;铁路管理局&lt;/b&gt;" style="rounded=0;whiteSpace=wrap;html=1;fontSize=16;" vertex="1" parent="1">
          <mxGeometry x="579" y="161" width="80" height="80" as="geometry" />
        </mxCell>
        <mxCell id="IXsih3EqHPn1jYVtWHGe-51" value="&lt;font style=&quot;font-size: 16px;&quot;&gt;&lt;b&gt;&amp;nbsp; &amp;nbsp; &amp;nbsp; &amp;nbsp; &amp;nbsp;应急事件记录&lt;/b&gt;&lt;/font&gt;" style="html=1;dashed=0;whiteSpace=wrap;shape=mxgraph.dfd.dataStoreID;align=left;spacingLeft=3;points=[[0,0],[0.5,0],[1,0],[0,0.5],[1,0.5],[0,1],[0.5,1],[1,1]];" vertex="1" parent="1">
          <mxGeometry x="505.25" y="617" width="163.5" height="38" as="geometry" />
        </mxCell>
        <mxCell id="IXsih3EqHPn1jYVtWHGe-61" style="edgeStyle=orthogonalEdgeStyle;rounded=0;orthogonalLoop=1;jettySize=auto;html=1;exitX=0.5;exitY=1;exitDx=0;exitDy=0;entryX=0;entryY=0.5;entryDx=0;entryDy=0;" edge="1" parent="1" source="IXsih3EqHPn1jYVtWHGe-55" target="IXsih3EqHPn1jYVtWHGe-41">
          <mxGeometry relative="1" as="geometry" />
        </mxCell>
        <mxCell id="IXsih3EqHPn1jYVtWHGe-64" value="&lt;b&gt;&lt;font style=&quot;font-size: 14px;&quot;&gt;资源调动通知&lt;/font&gt;&lt;/b&gt;" style="edgeLabel;html=1;align=center;verticalAlign=middle;resizable=0;points=[];" vertex="1" connectable="0" parent="IXsih3EqHPn1jYVtWHGe-61">
          <mxGeometry x="-0.0756" y="-2" relative="1" as="geometry">
            <mxPoint x="15" y="-2" as="offset" />
          </mxGeometry>
        </mxCell>
        <mxCell id="IXsih3EqHPn1jYVtWHGe-55" value="3.2.1" style="swimlane;html=1;startSize=20;fontStyle=1;collapsible=0;horizontal=1;swimlaneLine=1;strokeWidth=2;swimlaneFillColor=#ffffff;whiteSpace=wrap;rounded=1;fontSize=15;" vertex="1" parent="1">
          <mxGeometry x="83" y="433" width="158" height="64" as="geometry" />
        </mxCell>
        <mxCell id="IXsih3EqHPn1jYVtWHGe-56" value="调动应急资源" style="text;html=1;align=center;verticalAlign=middle;whiteSpace=wrap;rounded=0;fontSize=15;fontStyle=1" vertex="1" parent="IXsih3EqHPn1jYVtWHGe-55">
          <mxGeometry x="21" y="25" width="116" height="30" as="geometry" />
        </mxCell>
        <mxCell id="IXsih3EqHPn1jYVtWHGe-74" value="&lt;font style=&quot;font-size: 16px;&quot;&gt;&lt;b&gt;&amp;nbsp; &amp;nbsp; &amp;nbsp; &amp;nbsp; &amp;nbsp;物资库存&lt;/b&gt;&lt;/font&gt;" style="html=1;dashed=0;whiteSpace=wrap;shape=mxgraph.dfd.dataStoreID;align=left;spacingLeft=3;points=[[0,0],[0.5,0],[1,0],[0,0.5],[1,0.5],[0,1],[0.5,1],[1,1]];" vertex="1" parent="1">
          <mxGeometry x="793" y="382" width="126" height="38" as="geometry" />
        </mxCell>
      </root>
    </mxGraphModel>
  </diagram>
</mxfile>
